<?xml version="1.0" encoding="utf-8"?>
<!-- Generator: Adobe Illustrator 28.0.0, SVG Export Plug-In . SVG Version: 6.00 Build 0)  -->
<svg version="1.1" xmlns="http://www.w3.org/2000/svg" xmlns:xlink="http://www.w3.org/1999/xlink" x="0px" y="0px"
	 viewBox="0 0 2930.72 769.37" style="enable-background:new 0 0 2930.72 769.37;" xml:space="preserve">
<g id="Background">
</g>
<g id="Artwork">
	<g>
		<path d="M720,720.42h160v-480H720V720.42z M960,160.42h400v-160H960V160.42z M720,0.42h160v160H720V0.42z M480,720.42h160v-720
			H480V720.42z M240,560.42h160v-560H240V560.42z M0,720.42h160v-720H0V720.42z M960,720.42h160v-480H960V720.42z"/>
		<g>
			<path d="M1520.67,0.42h40.56v200h-40.56V0.42z"/>
			<path d="M1626.4,76.5h0.84c9.79-15.38,22.94-23.5,42.52-23.5c29.65,0,49.51,22.38,49.51,53.71v93.71h-38.04v-88.11
				c0-15.38-8.95-26.29-24.9-26.29c-16.78,0-29.09,13.43-29.09,33.01v81.4h-38.04V56.92h37.2V76.5z"/>
			<path d="M1732.97,56.92h19.58V44.06c0-34.97,27.13-47.27,63.78-43.36v29.37c-17.9-0.84-25.74,1.4-25.74,16.22v10.63h25.74v26.29
				h-25.74v117.2h-38.04V83.22h-19.58V56.92z"/>
			<path d="M1822.48,128.81c0-42.8,30.49-75.81,74.97-75.81c44.48,0,74.97,33.01,74.97,75.81s-30.49,75.81-74.97,75.81
				C1852.97,204.62,1822.48,171.61,1822.48,128.81z M1933.81,128.81c0-27.97-13.15-46.99-36.36-46.99
				c-23.5,0-36.36,19.02-36.36,46.99s12.87,46.71,36.36,46.71C1920.66,175.53,1933.81,156.78,1933.81,128.81z"/>
			<path d="M2026.67,79.86h0.84c8.67-16.22,18.46-24.62,35.25-24.62c4.2,0,6.71,0.28,8.95,1.12v33.29h-0.84
				c-24.9-2.52-42.8,10.63-42.8,40.84v69.93h-38.04V56.92h36.64V79.86z"/>
			<path d="M2088.21,56.92h36.64v19.3h0.84c7.83-13.15,21.82-23.22,41.68-23.22c18.18,0,32.73,10.07,39.72,25.18h0.56
				c9.79-15.67,24.9-25.18,43.08-25.18c30.21,0,47.27,19.58,47.27,50.91v96.5h-38.04v-90.07c0-16.22-8.11-24.62-22.1-24.62
				c-15.94,0-25.73,12.31-25.73,31.33v83.36h-38.04v-90.07c0-16.22-8.11-24.62-22.1-24.62c-15.38,0-25.73,12.31-25.73,31.33v83.36
				h-38.04V56.92z"/>
			<path d="M2407.37,184.48h-0.56c-7.27,10.91-17.62,19.3-42.24,19.3c-29.37,0-50.07-15.38-50.07-43.92
				c0-31.61,25.74-41.68,57.62-46.15c23.78-3.36,34.69-5.31,34.69-16.22c0-10.35-8.11-17.06-24.06-17.06
				c-17.9,0-26.57,6.43-27.69,20.14h-33.85c1.12-25.18,19.86-47.27,61.82-47.27c43.08,0,60.42,19.3,60.42,52.87v73.01
				c0,10.91,1.68,17.34,5.04,19.86v1.4h-36.64C2409.61,197.62,2408.21,190.91,2407.37,184.48z M2407.65,149.79v-21.54
				c-6.71,3.92-17.06,6.15-26.57,8.39c-19.86,4.48-29.65,8.95-29.65,22.38s8.95,18.18,22.38,18.18
				C2395.62,177.2,2407.65,163.78,2407.65,149.79z"/>
			<path d="M2456.32,56.92h19.86V12.17h37.2v44.76H2538V82.1h-24.62v76.08c0,10.63,5.88,14.27,14.27,14.27
				c4.75,0,11.19-0.28,11.19-0.28v27.97c0,0-8.67,0.56-23.78,0.56c-18.46,0-38.88-7.27-38.88-34.41V82.1h-19.86V56.92z"/>
			<path d="M2557.57,0.42h38.04v34.13h-38.04V0.42z M2557.57,56.92h38.04v143.5h-38.04V56.92z"/>
			<path d="M2613.24,128.81c0-42.8,30.49-75.81,74.97-75.81c44.48,0,74.97,33.01,74.97,75.81s-30.49,75.81-74.97,75.81
				C2643.73,204.62,2613.24,171.61,2613.24,128.81z M2724.57,128.81c0-27.97-13.15-46.99-36.36-46.99
				c-23.5,0-36.36,19.02-36.36,46.99s12.87,46.71,36.36,46.71C2711.42,175.53,2724.57,156.78,2724.57,128.81z"/>
			<path d="M2817.99,76.5h0.84c9.79-15.38,22.94-23.5,42.52-23.5c29.65,0,49.51,22.38,49.51,53.71v93.71h-38.04v-88.11
				c0-15.38-8.95-26.29-24.9-26.29c-16.78,0-29.09,13.43-29.09,33.01v81.4h-38.04V56.92h37.2V76.5z"/>
		</g>
		<g>
			<path d="M1511.43,398.6h39.72c2.8,24.06,16.5,33.57,45.04,33.57c20.7,0,38.88-7.27,38.88-25.73c0-19.58-19.02-23.5-49.51-30.49
				c-35.8-8.11-68.53-17.62-68.53-59.3c0-39.44,32.17-59.86,76.64-59.86c45.04,0,74.13,22.1,77.2,62.38H1632
				c-2.24-20.14-17.9-30.21-38.6-30.21c-21.82,0-36.08,9.23-36.08,23.5c0,16.22,13.99,20.98,43.64,27.41
				c41.12,8.95,74.69,18.74,74.69,61.82c0,40.56-32.73,63.22-77.76,63.22C1543.6,464.9,1512.83,440.84,1511.43,398.6z"/>
			<path d="M1697.17,477.48h13.43c15.11,0,21.26-7.83,21.26-19.58c0-7.83-2.8-17.06-10.91-38.88l-38.6-102.1h40l21.26,64.62
				c4.48,13.15,9.23,31.33,9.23,31.33h0.56c0,0,3.92-18.18,8.39-31.33l20.14-64.62h38.32l-50.07,147.14
				c-10.91,31.89-21.54,43.36-50.63,43.36h-22.38V477.48z"/>
			<path d="M1822.76,413.99h35.25c2.52,16.5,14.27,23.78,31.33,23.78c16.78,0,26.29-6.43,26.29-16.5
				c0-13.71-18.18-15.11-37.76-19.02c-25.73-5.04-50.91-12.03-50.91-43.36c0-31.05,25.73-45.87,58.46-45.87
				c37.76,0,58.74,18.74,61.54,47.55h-34.41c-1.68-15.38-11.47-20.98-27.69-20.98c-14.83,0-24.62,5.59-24.62,15.94
				c0,12.31,19.02,13.43,39.44,17.62c24.06,5.04,50.63,11.75,50.63,45.32c0,28.81-24.62,46.15-60.42,46.15
				C1848.22,464.62,1825,444.48,1822.76,413.99z"/>
			<path d="M1956.19,316.92h19.86v-44.76h37.2v44.76h24.62v25.18h-24.62v76.08c0,10.63,5.88,14.27,14.27,14.27
				c4.75,0,11.19-0.28,11.19-0.28v27.97c0,0-8.67,0.56-23.78,0.56c-18.46,0-38.88-7.27-38.88-34.41v-84.2h-19.86V316.92z"/>
			<path d="M2049.05,388.53c0-42.52,28.81-75.53,70.77-75.53c46.15,0,70.77,35.25,70.77,86.43h-104.06
				c2.8,22.1,15.11,35.8,36.64,35.8c14.83,0,23.5-6.71,27.69-17.62h37.48c-5.31,25.46-27.97,46.99-64.9,46.99
				C2075.91,464.62,2049.05,431.33,2049.05,388.53z M2087.1,373.15h63.78c-1.12-18.18-13.15-30.77-30.49-30.77
				C2100.24,342.38,2090.45,354.41,2087.1,373.15z"/>
			<path d="M2208.21,316.92h36.64v19.3h0.84c7.83-13.15,21.82-23.22,41.68-23.22c18.18,0,32.73,10.07,39.72,25.18h0.56
				c9.79-15.67,24.9-25.18,43.08-25.18c30.21,0,47.27,19.58,47.27,50.91v96.5h-38.04v-90.07c0-16.22-8.11-24.62-22.1-24.62
				c-15.94,0-25.73,12.31-25.73,31.33v83.36h-38.04v-90.07c0-16.22-8.11-24.62-22.1-24.62c-15.38,0-25.73,12.31-25.73,31.33v83.36
				h-38.04V316.92z"/>
			<path d="M2432.55,413.99h35.25c2.52,16.5,14.27,23.78,31.33,23.78c16.78,0,26.29-6.43,26.29-16.5
				c0-13.71-18.18-15.11-37.76-19.02c-25.73-5.04-50.91-12.03-50.91-43.36c0-31.05,25.73-45.87,58.46-45.87
				c37.76,0,58.74,18.74,61.54,47.55h-34.41c-1.68-15.38-11.47-20.98-27.69-20.98c-14.83,0-24.62,5.59-24.62,15.94
				c0,12.31,19.02,13.43,39.44,17.62c24.06,5.04,50.63,11.75,50.63,45.32c0,28.81-24.62,46.15-60.42,46.15
				C2458,464.62,2434.79,444.48,2432.55,413.99z"/>
			<path d="M2617.16,408.95c0-28.53,18.18-46.43,44.2-59.58c-11.47-13.99-16.78-25.17-16.78-41.4c0-26.01,20.7-46.15,51.75-46.15
				c30.21,0,52.31,18.46,52.31,45.87c0,24.62-14.27,36.92-35.8,48.11l26.57,34.41c3.92-10.07,6.71-21.54,7.83-32.45h33.85
				c-1.68,22.38-8.11,43.92-19.02,61.82l31.61,40.84h-46.43l-10.35-13.15c-14.83,10.91-33.01,17.34-53.15,17.34
				C2639.82,464.62,2617.16,440.28,2617.16,408.95z M2717.02,421.54l-36.64-47.83c-17.06,10.35-22.94,21.54-22.94,34.13
				c0,15.1,12.03,25.45,27.69,25.45C2697.16,433.29,2708.07,429.09,2717.02,421.54z M2695.76,334.27
				c13.15-7.83,16.78-16.5,16.78-26.01c0-9.79-7.27-15.94-15.67-15.94c-8.95,0-15.67,6.71-15.67,16.22
				C2681.22,317.48,2687.37,326.15,2695.76,334.27z"/>
		</g>
		<g>
			<path d="M1510.04,520.42h160.84v34.13h-60.14v165.88h-40.56V554.54h-60.14V520.42z"/>
			<path d="M1649.06,648.53c0-42.52,28.81-75.53,70.77-75.53c46.15,0,70.77,35.25,70.77,86.43h-104.06
				c2.8,22.1,15.11,35.8,36.64,35.8c14.83,0,23.5-6.71,27.69-17.62h37.48c-5.31,25.46-27.97,46.99-64.9,46.99
				C1675.91,724.62,1649.06,691.33,1649.06,648.53z M1687.1,633.15h63.78c-1.12-18.18-13.15-30.77-30.49-30.77
				C1700.25,602.38,1690.46,614.41,1687.1,633.15z"/>
			<path d="M1801.22,648.81c0-42.8,27.97-75.81,71.61-75.81c37.2,0,60.14,21.54,65.18,52.59h-37.2
				c-2.52-12.59-12.31-22.1-26.29-22.1c-22.94,0-34.69,17.62-34.69,45.32c0,27.13,10.91,45.32,34.13,45.32
				c15.38,0,26.29-8.11,28.81-24.34h36.64c-2.52,30.49-26.29,54.83-64.62,54.83C1829.47,724.62,1801.22,691.61,1801.22,648.81z"/>
			<path d="M1993.95,595.66h0.84c10.35-15.11,22.1-22.66,41.68-22.66c29.65,0,49.51,22.38,49.51,53.71v93.71h-38.04v-88.11
				c0-15.38-8.95-26.29-24.9-26.29c-16.78,0-29.09,13.43-29.09,33.01v81.4h-38.04v-200h38.04V595.66z"/>
			<path d="M2146.68,596.5h0.84c9.79-15.38,22.94-23.5,42.52-23.5c29.65,0,49.51,22.38,49.51,53.71v93.71h-38.04v-88.11
				c0-15.38-8.95-26.29-24.9-26.29c-16.78,0-29.09,13.43-29.09,33.01v81.4h-38.04v-143.5h37.2V596.5z"/>
			<path d="M2256.04,648.81c0-42.8,30.49-75.81,74.97-75.81c44.48,0,74.97,33.01,74.97,75.81s-30.49,75.81-74.97,75.81
				C2286.54,724.62,2256.04,691.61,2256.04,648.81z M2367.38,648.81c0-27.97-13.15-46.99-36.36-46.99
				c-23.5,0-36.36,19.02-36.36,46.99s12.87,46.71,36.36,46.71C2354.23,695.53,2367.38,676.78,2367.38,648.81z"/>
			<path d="M2424.15,520.42h38.04v200h-38.04V520.42z"/>
			<path d="M2480.38,648.81c0-42.8,30.49-75.81,74.97-75.81c44.48,0,74.97,33.01,74.97,75.81s-30.49,75.81-74.97,75.81
				C2510.87,724.62,2480.38,691.61,2480.38,648.81z M2591.71,648.81c0-27.97-13.15-46.99-36.36-46.99
				c-23.5,0-36.36,19.02-36.36,46.99s12.87,46.71,36.36,46.71C2578.56,695.53,2591.71,676.78,2591.71,648.81z"/>
			<path d="M2644.01,724.62h37.76c3.08,8.95,11.19,15.94,28.81,15.94c21.54,0,31.89-10.35,31.89-29.93v-15.67h-0.84
				c-8.39,9.51-19.3,16.78-37.48,16.78c-31.89,0-63.22-25.18-63.22-68.53c0-42.8,25.74-70.21,62.1-70.21
				c17.9,0,31.05,6.99,39.72,19.02h0.56v-15.1h36.64v132.59c0,20.14-6.43,33.85-17.06,43.64c-12.03,11.19-30.49,16.22-51.75,16.22
				C2671.98,769.37,2647.93,752.59,2644.01,724.62z M2744.43,642.38c0-20.98-11.19-38.88-34.13-38.88
				c-19.3,0-32.17,15.11-32.17,39.16c0,24.34,12.87,38.6,32.45,38.6C2734.64,681.26,2744.43,663.64,2744.43,642.38z"/>
			<path d="M2807.65,737.48h13.43c15.11,0,21.26-7.83,21.26-19.58c0-7.83-2.8-17.06-10.91-38.88l-38.6-102.1h40l21.26,64.62
				c4.48,13.15,9.23,31.33,9.23,31.33h0.56c0,0,3.92-18.18,8.39-31.33l20.14-64.62h38.32l-50.07,147.14
				c-10.91,31.89-21.54,43.36-50.63,43.36h-22.38V737.48z"/>
		</g>
	</g>
</g>
<g id="Guides">
</g>
</svg>
